<svg width="82" height="64" viewBox="0 0 82 64" fill="none" xmlns="http://www.w3.org/2000/svg">
<path d="M0.552199 56.8131C0.249101 57.2748 0.377659 57.8948 0.839341 58.1979L8.36288 63.1372C8.82457 63.4403 9.44454 63.3117 9.74764 62.85C10.0507 62.3883 9.92218 61.7684 9.4605 61.4653L2.7729 57.0748L7.16336 50.3872C7.46646 49.9255 7.3379 49.3056 6.87622 49.0025C6.41453 48.6994 5.79456 48.8279 5.49146 49.2896L0.552199 56.8131ZM48.3425 10.9201L47.9513 11.8404L48.3425 10.9201ZM23.9829 49.263L24.5218 50.1054L23.9829 49.263ZM64.0337 19.4673L64.6125 20.2827L64.0337 19.4673ZM25.5551 30.0504L26.5277 29.8178L25.5551 30.0504ZM1.38815 57.362C1.59119 58.3411 1.59121 58.3411 1.59124 58.3411C1.59126 58.3411 1.59129 58.3411 1.59132 58.3411C1.59137 58.3411 1.59144 58.3411 1.59151 58.3411C1.59166 58.341 1.59186 58.341 1.5921 58.3409C1.59259 58.3408 1.59325 58.3407 1.59409 58.3405C1.59576 58.3402 1.59815 58.3397 1.60124 58.339C1.60741 58.3377 1.61638 58.3359 1.62811 58.3334C1.65155 58.3284 1.68598 58.3212 1.73092 58.3115C1.82081 58.2923 1.95278 58.2637 2.12309 58.226C2.46369 58.1506 2.9578 58.0385 3.57551 57.8913L3.11187 55.9458C2.50544 56.0903 2.02178 56.2 1.69064 56.2733C1.52509 56.31 1.3977 56.3376 1.31219 56.3559C1.26944 56.365 1.23716 56.3718 1.21583 56.3763C1.20516 56.3786 1.19722 56.3803 1.19209 56.3813C1.18952 56.3819 1.18764 56.3823 1.18648 56.3825C1.1859 56.3826 1.18549 56.3827 1.18526 56.3827C1.18515 56.3828 1.18508 56.3828 1.18505 56.3828C1.18504 56.3828 1.18504 56.3828 1.18505 56.3828C1.18505 56.3828 1.18507 56.3828 1.18507 56.3828C1.18509 56.3828 1.18511 56.3828 1.38815 57.362ZM7.50284 56.8834C8.69835 56.5551 10.0143 56.1739 11.3898 55.7426L10.7914 53.8342C9.44198 54.2573 8.14925 54.6319 6.97323 54.9548L7.50284 56.8834ZM15.2403 54.4454C16.5131 53.9838 17.792 53.4838 19.0338 52.9473L18.2404 51.1113C17.0415 51.6294 15.8005 52.1148 14.5585 52.5652L15.2403 54.4454ZM22.7334 51.1596C23.355 50.8202 23.9538 50.4688 24.5218 50.1054L23.4441 48.4206C22.9199 48.7559 22.3615 49.084 21.7749 49.4042L22.7334 51.1596ZM24.5218 50.1054C25.0462 49.77 25.5834 49.4196 26.1311 49.0557L25.024 47.39C24.4858 47.7477 23.9584 48.0917 23.4441 48.4206L24.5218 50.1054ZM29.3001 46.8773C30.3185 46.1545 31.3573 45.3958 32.4044 44.6073L31.2013 43.0096C30.1694 43.7867 29.1458 44.5343 28.1426 45.2463L29.3001 46.8773ZM35.4437 42.2507C36.4393 41.4557 37.4324 40.6392 38.4128 39.8063L37.1179 38.2821C36.1538 39.1011 35.1763 39.9048 34.1957 40.6878L35.4437 42.2507ZM41.3059 37.2639C42.2664 36.3894 43.2038 35.503 44.1073 34.6102L42.7015 33.1876C41.8191 34.0596 40.9016 34.9273 39.9595 35.785L41.3059 37.2639ZM46.7915 31.8237C47.6903 30.839 48.5367 29.8518 49.3159 28.8694L47.749 27.6265C47.0022 28.5681 46.1863 29.52 45.3143 30.4753L46.7915 31.8237ZM51.6001 25.6914C52.3578 24.5059 52.9958 23.3298 53.481 22.1776L51.6377 21.4014C51.2057 22.4274 50.6255 23.5024 49.9149 24.6144L51.6001 25.6914ZM54.5093 18.1834C54.6135 16.6861 54.3475 15.2491 53.6069 13.9463L51.8682 14.9347C52.3869 15.8471 52.5951 16.8809 52.5141 18.0445L54.5093 18.1834ZM50.5776 10.9427C50.0218 10.6005 49.4074 10.2862 48.7337 9.99981L47.9513 11.8404C48.5436 12.0922 49.0676 12.3617 49.529 12.6458L50.5776 10.9427ZM48.7337 9.99981C48.1266 9.74176 47.523 9.51845 46.9236 9.32855L46.3195 11.2351C46.8571 11.4055 47.4012 11.6066 47.9513 11.8404L48.7337 9.99981ZM43.1359 8.55456C41.7976 8.43205 40.4972 8.47424 39.2463 8.66101L39.5416 10.6391C40.6349 10.4758 41.775 10.4383 42.9536 10.5462L43.1359 8.55456ZM35.4935 9.69959C34.2842 10.1975 33.1488 10.8337 32.0995 11.5809L33.2596 13.2101C34.1906 12.5471 35.193 11.9862 36.2549 11.549L35.4935 9.69959ZM29.2075 14.1437C28.3363 15.0943 27.5628 16.1316 26.8995 17.2295L28.6113 18.2638C29.2074 17.2771 29.9017 16.3463 30.6819 15.4951L29.2075 14.1437ZM25.2412 20.7081C24.8022 21.929 24.4898 23.1894 24.3191 24.462L26.3013 24.728C26.4525 23.6011 26.7301 22.4781 27.1233 21.3848L25.2412 20.7081ZM24.2531 28.3512C24.321 29.0004 24.4301 29.6456 24.5825 30.283L26.5277 29.8178C26.3961 29.2675 26.3014 28.7082 26.2422 28.143L24.2531 28.3512ZM24.5825 30.283C24.7566 31.0107 24.9919 31.6737 25.2893 32.2715L27.08 31.3807C26.8579 30.9343 26.6709 30.4165 26.5277 29.8178L24.5825 30.283ZM28.3351 35.3362C29.5525 35.9261 30.9501 36.1569 32.4386 36.1334L32.407 34.1337C31.1349 34.1538 30.0676 33.9532 29.2072 33.5363L28.3351 35.3362ZM36.3652 35.5914C37.5568 35.3067 38.7977 34.9191 40.0693 34.4509L39.3782 32.5741C38.1648 33.0209 37.0004 33.3833 35.9004 33.6462L36.3652 35.5914ZM43.601 32.9894C44.7291 32.4762 45.8727 31.9155 47.0212 31.3195L46.0999 29.5443C44.9777 30.1267 43.8653 30.6719 42.7728 31.169L43.601 32.9894ZM50.3525 29.5046C51.4456 28.8827 52.535 28.2386 53.6116 27.5823L52.5706 25.8745C51.5092 26.5216 50.4372 27.1554 49.3634 27.7663L50.3525 29.5046ZM56.8131 25.5746C57.8907 24.881 58.9453 24.1849 59.9668 23.4974L58.8502 21.8382C57.8387 22.5189 56.7955 23.2074 55.7306 23.8929L56.8131 25.5746ZM63.0762 21.3645C63.6025 20.997 64.1152 20.6357 64.6125 20.2827L63.455 18.6518C62.9615 19.002 62.4529 19.3604 61.9311 19.7248L63.0762 21.3645ZM64.6125 20.2827C65.2129 19.8566 65.797 19.4242 66.3648 18.9872L65.1451 17.4022C64.5972 17.8239 64.0338 18.2409 63.455 18.6518L64.6125 20.2827ZM69.7082 16.2088C70.833 15.2015 71.8773 14.1896 72.8422 13.1929L71.4053 11.8018C70.4713 12.7665 69.4612 13.7452 68.374 14.7188L69.7082 16.2088ZM75.7541 9.96823C76.7776 8.75298 77.6712 7.59888 78.4372 6.54853L76.8213 5.37C76.0805 6.3858 75.2155 7.50299 74.2244 8.67986L75.7541 9.96823ZM80.8665 2.93783C81.2313 2.34422 81.5046 1.86956 81.6881 1.54081C81.7798 1.37643 81.849 1.24848 81.896 1.16035C81.9195 1.11628 81.9374 1.08216 81.9498 1.05841C81.956 1.04653 81.9608 1.03725 81.9642 1.03061C81.9659 1.02729 81.9673 1.02464 81.9683 1.02265C81.9688 1.02165 81.9693 1.02082 81.9696 1.02016C81.9698 1.01983 81.9699 1.01954 81.97 1.01929C81.9701 1.01917 81.9702 1.01906 81.9702 1.01896C81.9702 1.01891 81.9703 1.01884 81.9703 1.01881C81.9703 1.01875 81.9704 1.01868 81.0796 0.56427C80.1888 0.109861 80.1888 0.1098 80.1888 0.109747C80.1888 0.109732 80.1889 0.109678 80.1889 0.109648C80.1889 0.109589 80.1889 0.109537 80.1889 0.109497C80.189 0.109421 80.189 0.109383 80.189 0.109386C80.189 0.109398 80.1889 0.109573 80.1887 0.109915C80.1884 0.110601 80.1877 0.111948 80.1867 0.11395C80.1846 0.117964 80.1812 0.124599 80.1764 0.133812C80.1668 0.152234 80.1517 0.180956 80.1311 0.219559C80.0899 0.296771 80.0268 0.413487 79.9415 0.566378C79.7709 0.872171 79.5117 1.3225 79.1625 1.89067L80.8665 2.93783Z" fill="white" fill-opacity="0.5"/>
</svg>
