<svg width="4" height="18" viewBox="0 0 4 18" fill="none" xmlns="http://www.w3.org/2000/svg">
<path d="M0.816406 2.23828C0.816406 2.01953 0.851562 1.81641 0.921875 1.62891C0.992188 1.43359 1.08984 1.26562 1.21484 1.125C1.34766 0.976562 1.50391 0.863281 1.68359 0.785156C1.86328 0.699219 2.0625 0.65625 2.28125 0.65625C2.5 0.65625 2.70312 0.699219 2.89062 0.785156C3.07812 0.863281 3.23828 0.976562 3.37109 1.125C3.50391 1.26562 3.60938 1.43359 3.6875 1.62891C3.76562 1.81641 3.80469 2.01953 3.80469 2.23828C3.80469 2.45703 3.76562 2.66406 3.6875 2.85938C3.60938 3.04688 3.50391 3.21484 3.37109 3.36328C3.23828 3.50391 3.07812 3.61719 2.89062 3.70312C2.70312 3.78125 2.5 3.82031 2.28125 3.82031C2.0625 3.82031 1.86328 3.78125 1.68359 3.70312C1.50391 3.61719 1.34766 3.50391 1.21484 3.36328C1.08984 3.21484 0.992188 3.04688 0.921875 2.85938C0.851562 2.66406 0.816406 2.45703 0.816406 2.23828ZM3.39453 12.4336C3.39453 12.8086 3.39844 13.2539 3.40625 13.7695C3.42188 14.2773 3.4375 14.793 3.45312 15.3164C3.47656 15.8398 3.5 16.3398 3.52344 16.8164C3.55469 17.293 3.58984 17.6875 3.62891 18H1.22656V11.7891C1.22656 11.2188 1.22266 10.6562 1.21484 10.1016C1.21484 9.54688 1.20703 9.02344 1.19141 8.53125C1.18359 8.03125 1.16797 7.57031 1.14453 7.14844C1.12109 6.71875 1.08984 6.35156 1.05078 6.04688H3.39453V12.4336Z" fill="white"/>
</svg>
