<svg width="13" height="16" viewBox="0 0 13 16" fill="none" xmlns="http://www.w3.org/2000/svg">
<path d="M5.7697 0.747682C5.51843 1.14953 5.35255 1.59879 5.28238 2.0675C5.21221 2.53622 5.23925 3.01436 5.36182 3.47217C4.71704 3.32805 4.0443 3.37415 3.42522 3.60487C2.80613 3.8356 2.26731 4.24103 1.87413 4.77198C0.929656 6.04564 0.447451 7.60315 0.507037 9.18766L0.523627 9.64469C0.524464 9.66163 0.526155 9.67852 0.528693 9.69529L0.749296 11.2628C0.795938 11.595 0.914418 11.913 1.09649 12.1947C1.27855 12.4764 1.51984 12.715 1.80353 12.8939C2.08722 13.0729 2.40651 13.1879 2.73916 13.2308C3.07182 13.2738 3.40984 13.2438 3.7297 13.1428C3.7671 13.131 3.80649 13.1268 3.84553 13.1306C3.88457 13.1344 3.92244 13.146 3.95687 13.1648C3.99131 13.1836 4.02159 13.2091 4.04592 13.2399C4.07025 13.2706 4.08812 13.306 4.09846 13.3438C4.18686 13.6674 4.34473 13.9678 4.56107 14.2241C4.77741 14.4804 5.04702 14.6865 5.35113 14.828C5.65523 14.9695 5.98653 15.0431 6.32194 15.0435C6.65736 15.0439 6.98884 14.9712 7.2933 14.8305L8.73067 14.1661C8.74596 14.159 8.76087 14.1512 8.77536 14.1426L9.16909 13.9093C10.5333 13.1017 11.5815 11.8534 12.1411 10.3701C12.3059 9.93299 12.3792 9.46671 12.3565 9.00012C12.3338 8.53353 12.2156 8.07657 12.0091 7.65753C11.8027 7.23849 11.5124 6.86628 11.1563 6.56395C10.8002 6.26162 10.3858 6.0356 9.93883 5.89989L8.70038 5.52388L8.69863 5.52292C8.96509 5.07594 9.30456 4.62319 9.67357 4.27919C10.1203 3.86366 10.5222 3.6864 10.8438 3.72049C10.9757 3.73424 11.1077 3.695 11.2108 3.61141C11.3138 3.52781 11.3794 3.40672 11.3932 3.27475C11.4069 3.14279 11.3677 3.01077 11.2841 2.90774C11.2005 2.80471 11.0794 2.73911 10.9474 2.72536C10.1916 2.64662 9.50933 3.06512 8.99222 3.54706L8.91998 3.6155C8.92769 3.25839 8.88036 2.90221 8.77967 2.5595C8.64179 2.0901 8.40576 1.65534 8.08722 1.28401C7.76867 0.912688 7.37488 0.613272 6.93191 0.405589C6.7301 0.310177 6.50029 0.292153 6.28607 0.354935C6.07186 0.417717 5.88813 0.556939 5.76975 0.746192L5.7697 0.747682ZM4.98853 6.25576C4.7634 6.18542 4.4994 6.22676 4.23453 6.43544C3.96445 6.64811 3.69797 7.03662 3.5463 7.61984C3.51145 7.74648 3.42816 7.85431 3.31445 7.92004C3.20073 7.98577 3.06572 8.00412 2.93859 7.97111C2.81146 7.93811 2.70242 7.85641 2.63504 7.74366C2.56766 7.63092 2.54734 7.49619 2.57849 7.36859C2.77264 6.6225 3.13809 6.02599 3.61596 5.64945C4.09872 5.26952 4.69927 5.11781 5.28585 5.30092C5.35058 5.31865 5.41107 5.34923 5.46373 5.39083C5.51639 5.43243 5.56014 5.48421 5.59236 5.54307C5.62458 5.60194 5.64463 5.66669 5.6513 5.73347C5.65797 5.80024 5.65113 5.86768 5.63119 5.93175C5.61124 5.99583 5.5786 6.05524 5.53522 6.10644C5.49183 6.15763 5.43858 6.19957 5.37864 6.22975C5.3187 6.25993 5.25329 6.27773 5.18633 6.2821C5.11936 6.28647 5.0522 6.27732 4.98885 6.25518L4.98853 6.25576Z" fill="white"/>
</svg>
